<?xml version="1.0" encoding="UTF-8"?>
<svg enable-background="new 0 0 190.4 37.6" version="1.1" viewBox="0 0 190.4 37.6" xml:space="preserve" xmlns="http://www.w3.org/2000/svg">
<style type="text/css">
  .st0 {
    fill: #fdc305;
  }

  .st1 {
    fill: #f06351;
  }

  .st2 {
    fill: #111111;
  }
</style>

<path class="st0" d="m6.1 20.7 0.1-2.3c6.7-0.9 13.4-1.4 20.2-1.3 0 0.6 0 1.2-0.1 1.8 0 0 2.9-1.3 6-1.8-2.4-6.3-8.5-10.8-15.6-10.8-8.3 0-15.2 6.1-16.5 14.1 2.2 0.1 5.9 0.3 5.9 0.3z"/>
<path class="st0" d="m27.2 24.2c-1.2 1.3-1.4 1.2-1.4 3.5v9.2c4.5-3 7.4-8.1 7.4-13.9 0-1.1-0.1-2.1-0.3-3.1-1.7 1.1-4.7 3.2-5.7 4.3z"/>
<path class="st0" d="m6.4 25.7s-3.8-1.4-5.2-1.8l-1.2-0.3c0.2 6 3.7 11.3 8.7 14l-2.3-11.9z"/>

<path class="st1" d="M26.3,17.1c0.1-8.5-1.4-16.5-1.4-16.5S24.7-0.6,24,0.4c-0.7,1.1-1.2,3.9-1.2,3.9C15.4,3.9,10,4.6,10,4.6  C9.2,2,7.9,0.8,7.2,1C6.5,1.3,6.5,4.4,6.5,4.4L6.1,18.5C12.8,17.5,19.6,17.1,26.3,17.1z"/>
<path d="m12.4 14c0-0.1 1 0.7 1.4 0.9s0.6 0.4 0.6 0.6-0.3 0.3-0.6 0.3-0.9-0.1-1-0.3h0.9 0.3c0.1 0.1-1.3-1-1.6-1.5z"/>
<path d="m19.9 14.1s-1 1.3-1.1 1.3c0 0.1-0.2 0.3 0.2 0.3s1.1-0.2 1.2-0.3 0.1-0.2-0.1-0.2-0.7 0-1 0.1l0.8-1.2s0.1-0.1 0 0z"/>
<path d="m16.8 20.2s0.8-0.4 1.1-1c0.3-0.7 0-0.9-0.4-1-0.5-0.1-1.3 0-1.7 0.3-0.4 0.4-0.3 0.7-0.1 1 0.2 0.2 0.8 0.6 1.1 0.7z"/>
<path class="st1" d="m16.3 21.5s-0.2 0.4-0.5 0.6c-0.2 0.2-0.6 0.4-1 0.4-0.6 0-1.1-0.2-1.5-0.4-0.2-0.1-0.4-0.3-0.5-0.4-0.2-0.2-0.4-0.3-0.4-0.3s0.7 4.1 2.6 4.7c1.8 0.6 2.1-0.7 2.2-1.1 0-0.3 0-2.1-0.8-3.2 0.1-0.4 0-0.2-0.1-0.3z"/>

<path d="m14.7 22.6c-1.3 0-2.3-1.4-2.3-1.4v-0.2h0.2s1 1.3 2.1 1.3c0.6 0 1.1-0.3 1.6-1l0.1-0.2 0.1 0.2s0.4 0.8 1 0.8c0.5 0 1.1-0.4 1.6-1.3 0-0.1 0.1-0.1 0.2 0 0.1 0 0.1 0.1 0 0.2-0.6 1-1.3 1.4-1.9 1.4s-0.9-0.5-1.1-0.8c-0.4 0.7-1 1-1.6 1z"/>

<path class="st1" d="m26.2 18.9s-2.5 2.2-5.1 5.2-5.2 4.9-5.2 4.9c-0.2-0.5-1.6-1.5-1.6-1.5s-3.1-2.1-5.2-3.8c-1.2-1-2.3-2.2-3.1-3-0.3 0-1.1-0.1-2-0.1 4.7 7 12 8.8 12 8.8 0.9-0.1 3.3-1.9 5.1-3.3s4.8-4.5 5.9-5.9c0.6-0.7 0.9-1.4 1.1-2-1.1 0.4-1.9 0.7-1.9 0.7z"/>
<g transform="translate(90 10.2)">
<path class="st2" d="m1.2 19.6c-0.8-1-1.2-2.5-1.2-4.4v-6.3c0-1.9 0.4-3.4 1.2-4.4s2.2-1.5 4.2-1.5c1.9 0 3.2 0.4 4 1.3s1.2 2.1 1.2 3.8v1.5h-4v-1.8c0-0.7-0.1-1.2-0.2-1.6-0.1-0.3-0.5-0.5-1-0.5s-1 0.2-1.1 0.6c-0.2 0.4-0.3 0.9-0.3 1.6v8.3c0 0.7 0.1 1.2 0.3 1.6s0.5 0.6 1.1 0.6c0.5 0 0.9-0.2 1-0.6 0.2-0.4 0.2-0.9 0.2-1.6v-1.8h3.9v1.5c0 1.6-0.4 2.9-1.2 3.9-0.8 0.9-2.1 1.4-4 1.4-1.9-0.1-3.3-0.6-4.1-1.6z"/>
<path class="st2" d="m15.2 3.2h4.5l3.3 17.6h-3.6l-0.6-3.7h-2.6l-0.6 3.7h-3.7l3.3-17.6zm3.2 11.6-0.9-6.9-0.9 6.9h1.8z"/>
<path class="st2" d="M25.8,6.1h-2.7V3.2h9.3v2.9h-2.7v14.7h-4V6.1H25.8z"/>
<path class="st2" d="M39.5,3.2h6.9V5H42v5.8h3.6v1.7H42v6.4h4.5v1.8h-7V3.2z"/>
<path class="st2" d="M48.5,3.2h1.7l5.1,11.7V3.2h2.1v17.6h-1.6l-5.1-12v12h-2.1V3.2H48.5z"/>
<path class="st2" d="m59.8 3.2h6.9v1.8h-4.4v5.8h3.6v1.7h-3.6v6.4h4.5v1.8h-7v-17.5z"/>
<path class="st2" d="m68.8 3.2h3.6c1.8 0 3.1 0.4 4 1.1s1.3 1.9 1.3 3.6c0 2.3-0.7 3.6-2.2 4.1l2.5 8.8h-2.4l-2.3-8.3h-1.9v8.3h-2.5l-0.1-17.6zm3.4 7.6c1.1 0 1.8-0.2 2.3-0.6s0.7-1.2 0.7-2.3c0-0.7-0.1-1.3-0.2-1.7s-0.4-0.7-0.9-0.9c-0.4-0.2-1-0.3-1.7-0.3h-1.1v5.8h0.9z"/>
<path class="st2" d="m80.8 19.5c-0.7-1-1.1-2.5-1.1-4.5v-5.8c0-1.4 0.1-2.5 0.4-3.4s0.8-1.5 1.5-2 1.7-0.7 2.9-0.7c1.6 0 2.8 0.4 3.6 1.2 0.7 0.8 1.1 2.1 1.1 3.9v0.7h-2.3v-0.6c0-0.8-0.1-1.5-0.2-1.9-0.1-0.5-0.3-0.8-0.7-1-0.3-0.3-0.8-0.4-1.4-0.4-0.7 0-1.2 0.2-1.5 0.5s-0.6 0.7-0.7 1.2-0.1 1.2-0.1 2.1v6.5c0 1.3 0.2 2.3 0.5 2.9s1 0.9 1.9 0.9 1.6-0.3 1.9-1c0.3-0.6 0.5-1.7 0.5-3.1v-1.2h-2.3v-1.7h4.5v8.7h-1.6l-0.2-2c-0.6 1.5-1.6 2.2-3.2 2.2s-2.8-0.5-3.5-1.5z"/>
<path class="st2" d="m94.3 14.6-3.9-11.4h2.3l2.7 8.5 2.7-8.5h2.3l-3.8 11.4v6.2h-2.4v-6.2h0.1z"/>
</g>
</svg>
